<?xml version="1.0" encoding="UTF-8"?>
<svg version="1.1" xmlns="http://www.w3.org/2000/svg" width="64" height="64">
<path d="M0 0 C6.84691739 5.55345456 10.97996724 13.96298435 11.9375 22.640625 C12.40002161 31.83324199 9.31110579 40.44934552 3.51953125 47.58984375 C-2.95508325 53.89879647 -11.09683681 57.29889745 -20.0625 57.75 C-29.07664849 57.53081098 -37.9949206 53.8584677 -44.3125 47.375 C-50.42314075 39.14128585 -53.51191018 30.6599423 -52.3125 20.375 C-49.96307351 10.79040783 -45.80365013 3.30787527 -37.375 -2 C-24.66446833 -8.97090262 -12.04035548 -8.07277168 0 0 Z " fill="#000000" transform="translate(52.3125,6.625)"/>
<path d="M0 0 C7.30081367 3.53865969 12.66242524 9.86371187 15.546875 17.36328125 C17.29075782 26.08269534 16.74463857 34.20614602 12.296875 42.11328125 C10.21777344 43.25390625 10.21777344 43.25390625 8.296875 44.11328125 C4.72047379 40.66053221 1.16085828 37.19163131 -2.38427734 33.70678711 C-3.59237617 32.52382323 -4.80492574 31.34538685 -6.02197266 30.17163086 C-7.77136913 28.48292773 -9.50407584 26.77855113 -11.234375 25.0703125 C-11.78121948 24.54927444 -12.32806396 24.02823639 -12.89147949 23.4914093 C-15.16209101 21.22251102 -16.5957724 19.65767285 -17.2253418 16.46508789 C-16.26799281 12.15366067 -13.08666857 9.73876139 -10.015625 6.73828125 C-9.38978516 6.08472656 -8.76394531 5.43117188 -8.11914062 4.7578125 C-3.48301995 0.14596471 -3.48301995 0.14596471 0 0 Z " fill="#FFFFFF" transform="translate(42.703125,5.88671875)"/>
<path d="M0 0 C8.0606372 3.81076817 15.81623559 10.04216537 20 18 C21.943764 27.18287451 21.01538692 36.73654703 20 46 C10.39420252 45.04843508 4.6679057 41.71241243 -1.5234375 34.1640625 C-5.89584563 27.75582413 -6.89495704 20.61310121 -6 13 C-4.87830776 8.13170307 -3.4236538 3.74971607 0 0 Z " fill="#FFFFFF" transform="translate(11,14)"/>
<path d="M0 0 C6.84691739 5.55345456 10.97996724 13.96298435 11.9375 22.640625 C12.40002161 31.83324199 9.31110579 40.44934552 3.51953125 47.58984375 C-2.95508325 53.89879647 -11.09683681 57.29889745 -20.0625 57.75 C-29.07664849 57.53081098 -37.9949206 53.8584677 -44.3125 47.375 C-50.42314075 39.14128585 -53.51191018 30.6599423 -52.3125 20.375 C-49.96307351 10.79040783 -45.80365013 3.30787527 -37.375 -2 C-24.66446833 -8.97090262 -12.04035548 -8.07277168 0 0 Z M-43.3125 5.375 C-49.07739248 12.92316589 -51.41513598 20.9061135 -50.3125 30.375 C-48.10795045 39.48129274 -44.17984163 45.97924011 -36.375 51.1875 C-28.84985335 55.51196991 -20.86273842 56.83797045 -12.4375 54.6171875 C-2.32201158 51.12624449 2.88269589 46.96968646 7.6875 37.375 C11.11255788 28.65667085 10.40285887 20.48929873 6.9453125 11.91796875 C2.97853338 3.89817618 -3.47415043 -0.74341961 -11.6875 -3.9375 C-23.4514999 -6.16860343 -35.12341308 -3.92592117 -43.3125 5.375 Z " fill="#FFFFFF" transform="translate(52.3125,6.625)"/>
<path d="M0 0 C4.36670004 3.74288574 8.43141441 7.31403652 12.4375 11.375 C13.30246094 12.24898437 14.16742188 13.12296875 15.05859375 14.0234375 C15.69925781 14.67570312 16.33992188 15.32796875 17 16 C15.42943037 19.63670734 13.66950498 21.1099384 10.2421875 23.16796875 C8 24 8 24 0 25 C0 16.75 0 8.5 0 0 Z " fill="#FFFFFF" transform="translate(33,35)"/>
<path d="M0 0 C0 5.61 0 11.22 0 17 C-7.09821429 10.97321429 -7.09821429 10.97321429 -10 8 C-8.93371135 4.68265755 -7.35782372 3.42559558 -4.4375 1.75 C-1 0 -1 0 0 0 Z " fill="#FFFFFF" transform="translate(24,5)"/>
<path d="M0 0 C1.37478516 0.01740234 1.37478516 0.01740234 2.77734375 0.03515625 C3.69644531 0.04417969 4.61554687 0.05320313 5.5625 0.0625 C6.27277344 0.07410156 6.98304687 0.08570313 7.71484375 0.09765625 C7.71484375 3.09765625 7.71484375 3.09765625 5.5625 5.578125 C4.64339844 6.47144531 3.72429688 7.36476563 2.77734375 8.28515625 C1.40255859 9.63673828 1.40255859 9.63673828 0 11.015625 C-2.28515625 13.09765625 -2.28515625 13.09765625 -3.28515625 13.09765625 C-3.31202178 11.11856227 -3.33149 9.13936654 -3.34765625 7.16015625 C-3.35925781 6.05800781 -3.37085937 4.95585937 -3.3828125 3.8203125 C-3.25076835 0.13892172 -3.25076835 0.13892172 0 0 Z " fill="#FFFFFF" transform="translate(29.28515625,3.90234375)"/>
</svg>
